<svg xmlns="http://www.w3.org/2000/svg" viewBox="0 0 1870.2 1826.04"><defs><style>.cls-1,.cls-2{fill:none;stroke:#534741;stroke-miterlimit:10;}.cls-1{stroke-width:1.77px;}.cls-2{stroke-width:2.37px;}</style></defs><g id="Layer_2" data-name="Layer 2"><g id="圖層_9" data-name="圖層 9"><path class="cls-1" d="M1309.51,110s13.19-9.05,22.33-11.74,13.93,6.4,49.24-4.78l32,8.55S1374.88,138,1309.51,110Z"/><path class="cls-1" d="M1317.57,105s48.34,13.59,82.3-6.44"/><path class="cls-1" d="M1574.9,317c6.19,13.06,12.72,23.45,13.52,31.51"/><path class="cls-1" d="M1552.56,286.07c-24-42.52-51.38-91.25-66.3-117.94-1-1.76-1.61-3.6-2.7-5-25-31.35-70.53-61.1-70.53-61.1s9.91-1.23,14.13,7.47A56.05,56.05,0,0,0,1424,89c-.47-1.39-1-2.81-1.61-4.26-5.71-13.53-59.31-81.35-52.26-83.66s63,12.76,53.4,86.53"/><path class="cls-1" d="M1487.69,139.77c.09-1.11,8,20.37,2.8,27.08"/><path class="cls-1" d="M1483.74,140.69c19.89-41.11,9.7-103.71,9.7-103.71-11.88,11.34-12.39,108.46-12.39,108.46s13.68.91,29.66-75.6c0,0-9-33.6-16.76-34.25"/><path class="cls-1" d="M1474.58,152.85s-26.41-19.6-81.28,7.74c0,0,85.41,3.76,90.26,2.58"/><path class="cls-1" d="M1515.54,216.33s-5.34-47.87,11.57-69.68,15.14-33.09,15.14-33.09,21.33,6,25.17,11.89,19.59,57.39-6.22,77.39c-18.19,14.1-23.41,19.74-24.9,21.84a2.52,2.52,0,0,1-2.26,1C1529.74,225.36,1518.39,223.72,1515.54,216.33Z"/><path class="cls-1" d="M1510.43,211.25s-36.89-7.45-43.16-3.53,3,2.83-27.42,31.31c0,0,79.75,1.31,84.76-4"/><path class="cls-1" d="M1547.38,260.55c2.14-9.84,8.43-33.53,21.91-43,0,0,17.18,9.51,26.83,6.7s2.83,51.87-21.68,62.11"/><path class="cls-1" d="M1516.93,290.88c-8.27-6.82-3.39-22.23,3.09-26.84,4.35-3.1,14.42-1.39,20.57.07"/><path class="cls-1" d="M1557.92,286.69s-40.37-6.72-53.16,15c0,0,70,32.31,92.83,4.2C1597.59,305.92,1604.35,283.82,1557.92,286.69Z"/><path class="cls-1" d="M1569.35,353.6a122.12,122.12,0,0,0,16.61-1.06c10-1.28,23-4.09,34.26-10.18,0,0,33.22,23.76,38.23,41.92,0,0-3.73,15.2-11,16.4s-49.06-8.24-63.79-20.53Z"/><path class="cls-1" d="M1599.09,405.55c-10.22,12-43.62-12.12-43.62-12.12-16.2-16.44-7.46-22.11-7.46-22.11,15.21-4.15,11.72-18.71,15.31-19.08s22.08-3.72,22.08-3.72,11.29-.48,13.51,1.69"/><path class="cls-1" d="M1612.27,393.66c-.21,5.43-7.61,9.17-10.76,10.54"/><path class="cls-1" d="M1590.65,384.81s26.36,67.49,23.91,69.51C1603,463.83,1584.25,510,1584.25,510A118.85,118.85,0,0,1,1628.7,486q1.1-.31,2.22-.6s15.95-20.79,12.85-33.44-29.21,2.33-29.21,2.33"/><path class="cls-1" d="M1629.43,485.82s2.51.67,6.47,1.58l2.07.47c15.41,3.4,46.48,8.83,48.36-2.2l.68-4.05.72-4.3-4.42-.87-42.24-8.32"/><path class="cls-1" d="M1636.55,487.55s36.69-7.16,50.79-7.92"/><path class="cls-1" d="M1621.72,488.25s22.4,122.69,19,123.4,3.4,12.15,3.4,12.15c4.31,12.87-1.8-65.78-17.4-137.19"/><path class="cls-1" d="M1595.54,387.28s24.55,63,23.16,64.89"/><path class="cls-1" d="M1567.18,317.41s16.26,27.73,14.8,31.72"/><path class="cls-1" d="M1490.3,165.42s24.52,41.21,24.75,44.69"/><path class="cls-1" d="M1523.58,223.42l7,13.31s4.41-8.82,2.82-10.87"/><path class="cls-1" d="M1538.27,222.94a26.61,26.61,0,0,1-2.29,15.92l25.07,47.67"/><path class="cls-1" d="M1486.31,142.67s4.41,26.35,1.93,21.08c-9-19.08-56.53-55-56.53-55s-5.87-28.57-7.59-26.29"/><path class="cls-1" d="M1679.58,798.83s15.91,1.7,24.61,5.6,6.41,13.92,40.51,28.39l18.72,27.26S1711.09,862.56,1679.58,798.83Z"/><path class="cls-1" d="M1689,800.24s27.91,41.75,66.73,48.61"/><path class="cls-1" d="M1746.69,1128.6c-3.78,14-5.58,26.09-10.21,32.73"/><path class="cls-1" d="M1749.81,1090.6c9.39-47.93,20.28-102.74,26.3-132.72.39-2,1.11-3.78,1.17-5.52,1.37-40.09-13.86-92.28-13.86-92.28s8.33,5.51,5.88,14.86a55.87,55.87,0,0,0,10.94-17.64c.55-1.35,1.07-2.78,1.55-4.28,4.46-14,7.83-100.38,14.68-97.54s39.61,50.68-15.68,100.47"/><path class="cls-1" d="M1795.63,937.27c.79-.79-7.16,20.68-15.47,22.39"/><path class="cls-1" d="M1792,935.39c41.84-18.3,74.79-72.49,74.79-72.49-16.4.9-79.93,74.35-79.93,74.35s9.8,9.59,71.7-38.15c0,0,15-31.41,9.52-36.93"/><path class="cls-1" d="M1777.17,938.68s-7.33-32.07-66.79-47c0,0,62.45,58.39,66.9,60.65"/><path class="cls-1" d="M1767,1013.54s27.06-39.85,54.09-45.42,33-15.3,33-15.3,12.29,18.44,11.4,25.4-22.44,56.34-55,54.76c-23-1.11-30.61-.22-33.11.4a2.49,2.49,0,0,1-2.4-.68C1771.94,1029.64,1764.37,1021,1767,1013.54Z"/><path class="cls-1" d="M1766.44,1006.36s-23.19-29.65-30.5-30.74.45,4.1-41.2,6c0,0,59.75,52.85,67,52.09"/><path class="cls-1" d="M1762.47,1067.84c8-6.08,28.2-20,44.62-18.46,0,0,6.88,18.4,16,22.54s-31.57,41.25-56.85,33.09"/><path class="cls-1" d="M1719.6,1071.09c-1.84-10.56,11.88-19.09,19.81-18.38,5.32.47,11.85,8.31,15.58,13.42"/><path class="cls-1" d="M1753.47,1094.55s-26.3-31.35-50.16-23.14c0,0,32.22,70.1,67.81,63.55C1771.12,1135,1790.62,1122.56,1753.47,1094.55Z"/><path class="cls-1" d="M1718.66,1152.83a121.71,121.71,0,0,0,13.31,10c8.47,5.55,20.16,11.87,32.64,14.54,0,0,9.8,39.64,1.8,56.7,0,0-12.72,9.13-19.05,5.28s-31.93-38.15-35.13-57.08Z"/><path class="cls-1" d="M1707.48,1211.63c-15.59,2.51-25.26-37.57-25.26-37.57-1.63-23,8.7-21.64,8.7-21.64,14.26,6.73,21.07-6.6,24-4.55s19.2,11.53,19.2,11.53,8.89,7,9.16,10.06"/><path class="cls-1" d="M1725.23,1211.17c-3.69,4-11.75,2-15,1"/><path class="cls-1" d="M1714.55,1190.39s-23.85,68.41-27,68.35c-15-.27-59.22,22.58-59.22,22.58a119,119,0,0,1,49.34,10.71c.69.32,1.39.65,2.08,1,0,0,25.63-5.43,31.51-17s-23.71-17.23-23.71-17.23"/><path class="cls-1" d="M1678.34,1292.35s1.47,2.14,3.89,5.41l1.27,1.69c9.5,12.61,29.57,36.94,38.18,29.77l3.14-2.63,3.35-2.8-2.79-3.53-26.69-33.79"/><path class="cls-1" d="M1682.63,1298.29s32.53,18.42,43.74,27"/><path class="cls-1" d="M1670.91,1289.18s-62.75,107.78-65.8,106.11-5.32,11.44-5.32,11.44c-5.09,12.58,41.4-51.15,76-115.55"/><path class="cls-1" d="M1716.66,1195.44s-22.3,63.82-24.59,64.36"/><path class="cls-1" d="M1740.54,1123.92s-5.67,31.64-9.38,33.72"/><path class="cls-1" d="M1780.94,958.45s-8.17,47.25-10.25,50"/><path class="cls-1" d="M1768.52,1024.15l-3.34,14.67s9.09-3.83,9.21-6.43"/><path class="cls-1" d="M1780,1033.34a26.62,26.62,0,0,1-12.1,10.61l-12,52.52"/><path class="cls-1" d="M1792.7,938.57s-13.78,22.89-12.24,17.27c5.6-20.32-7.2-78.53-7.2-78.53s14.11-25.52,11.32-24.91"/><path class="cls-2" d="M313.45,1245.59s18.64,15.34,24.09,22.66,29.18,41.46,29.18,41.46,4.12-11.8-22-45.85c0,0-5.21-4.35-11.44-8.83C325.68,1249.57,316.56,1243.89,313.45,1245.59Z"/><path class="cls-2" d="M333.27,1255s6.48-23.51,13-29.18,36.39-4.61,46-2.19,8.19,5.71,8.19,5.71-6.34,22.57-5.91,40.46-31,24.24-31,24.24"/><path class="cls-2" d="M306.67,1283.56s26-17.46,30.87-15.31l-8,7.46-20,13.47"/><path class="cls-2" d="M308.05,1303.24s8.11-17.74-35.95-84.84c0,0,1.52,54.89,10,61,8.22,5.93,8.66,13,24.31,22.82C307,1302.57,307.49,1302.91,308.05,1303.24Z"/><path class="cls-2" d="M308.35,1294.54s17.17,2,72.82,40.53c0,0-30.25-.24-40.7-7.53s-32.86-17.52-34.05-25.3c-1.37-9,.29-15.82-12.2-29.06s-22.12-54.78-22.12-54.78"/><path class="cls-2" d="M299.62,1297.63s-38.86,37.75-39.29,42.34"/><path class="cls-2" d="M294.61,1294.13s-28.64,24.72-38.67,41.25"/><path class="cls-2" d="M277.27,1310.31s-17.19-39.13-31.28-47.4-11.93-5.92-11.93-5.92-13.29,1.29-16.77,5.48-4.57,3.72-6,11.44,4.26,45.08,8.75,50.32,19.27,15.54,25.46,12.11"/><path class="cls-2" d="M248.42,1335.4c-17.64-4.83-16.28-20.33-16.28-20.33s13.23,4,23.62,37.17c0,0-3.26,29.57,6.22,32.77,0,0,34.94,30.52,41.32,31.14,0,0-23.49-55.4-32.16-58.43,0,0,9.88,4.75,16.1,1s-1.66-29.73-6.64-42.13"/><path class="cls-2" d="M232.14,1315.07s22.36,11.43,39,42.65"/><path class="cls-2" d="M263.56,1386.37s5.25,20,15.71,27.3,19,8.14,19,8.14l6.49-2.28-1.48-3.38"/><path class="cls-2" d="M251.28,1340s-42.12,61.86-44.13,67.49"/><path class="cls-2" d="M254,1347s-44.11,59.21-43.41,63.75c0,0,18.89-5,33.8,3.13s47.76,26.31,47.76,26.31-19.87,13.22-31.38,12.37-46.42-31.39-46.42-31.39"/><path class="cls-2" d="M200.36,1401s-3.34,13.66,3.76,19S217,1429,217,1429,211.42,1407.47,200.36,1401Z"/><path class="cls-2" d="M200.36,1401s-12.44-37.17-18.6-41.26c0,0-25.42-23.25-29.75-25.86s2.53,22.26,12.45,29.79c0,0,32.22,44.34,35.12,43.7"/><path class="cls-2" d="M201.23,1418.18s-40.93,68.68-36.59,68.93"/><path class="cls-2" d="M206.6,1421.93s-14.88,18.52-29.79,48q-.63,1.24-1.26,2.52c-2.36,4.74-4.7,9.75-7,15"/><path class="cls-2" d="M139,1486.58s13.36-4.23,44.5,6.37l56,36.64s7.78,7.27-4.58,6.58c0,0-20.67-11.69-23.26-12.45s-40.06-14.74-42.07-13.36S132.42,1490,139,1486.58Z"/><path class="cls-2" d="M183.47,1493s20.67,2.62-6.66-23"/><path class="cls-2" d="M173.14,1467.36l-17.26-18-36.95-25.75s-7.06-3-15.78,14.46,20.37,47.27,28.33,48.55l18.66-.79"/><path class="cls-2" d="M130.83,1567.29c1.28-10.1,25.54-62.34,25.54-62.34"/><path class="cls-2" d="M161.49,1506.83s-13.34,34.32-21.1,52.5c-2.66,6.24-4.66,10.57-5.24,11"/><path class="cls-2" d="M140.39,1559.33c8.65-4.12,91.79,10.54,91.79,10.54s-14.24,13.67-18.53,13.81-20.53,6.16-41.43-2.16-29.38-5.86-29.38-5.86"/><path class="cls-2" d="M49.68,1550s-4-4.84-1.14-8.12,38.05,5.86,44.69,9,39.46,15.91,49.61,24.8L160.9,1588s-22.28-11.55-24.75-10.48-27.37-5.18-41.85-16.2S49.68,1550,49.68,1550Z"/><path class="cls-2" d="M94.3,1561.35s-45.66-5.61-44.62-11.36"/><path class="cls-2" d="M127.39,1576.27s-21.78,67.6-19.74,68.33"/><path class="cls-2" d="M133.4,1577.52s-19.38,66.9-17,64.84"/><path class="cls-2" d="M83.82,1661.53s-4.44-6.57,27.74-17.9,65.59-14.14,65.59-14.14,10.82.56,12.34,1.62l9,6.27,17.43,12.15-3.3,1.72-4.3,2.23-8.13,11s-67.1,22.61-80.3,14.33c0,0-2-11.36-4.93-13.15s-5.39-6.54-12.62-5.79S83.29,1666.94,83.82,1661.53Z"/><path class="cls-2" d="M212.61,1651.25c.51,3.21,7.35,1.1,7.35,1.1a10.87,10.87,0,0,0-3.75-11.86c-6.26-5.29-19.91-4.63-19.91-4.63"/><path class="cls-2" d="M107.73,1642.39S97,1628.53,84.07,1611.87l-14.29-11.5s-15.38-.23-33.06-10.54c0,0-8.58-1.59-10.27,1.62s-6.83,4.56,5.21,23.74c0,0,12.52,12.2,27.16,20.57s25.12,10.39,25.12,10.39,5.92,2.59,8.59,5.68"/><path class="cls-2" d="M102.33,1659.86s-10.52,82.36-7.8,82.09"/><line class="cls-2" x1="110.7" y1="1662.13" x2="102.96" y2="1748.57"/><path class="cls-2" d="M90.88,1758.94s-8.39,62.63-5,62.45c0,0,.81,2.47,4.67,3.33l4.47-6.4s-.09-47.13,5.86-57.09"/><path class="cls-2" d="M21.62,1693.48l-6.77-1.64C9.06,1691,1.93,1695,1.93,1695c-1.7,2.44-.33,3.31,2.41,3.28,4.56-.06,12.91-2.65,17.28-4.78,6.65-3.25,14.36-6.3,19.13-5.87,9.79.88,18.79,9.63,18.79,9.63,1.92,10.75,13.78,28.92,13.78,28.92L115.49,1758c4.38,3.3.39,5.47.39,5.47l-25-4.57c-17.7-20-42.08-30.3-42.08-30.3s-33.23-29.51-42.64-30.51"/><path class="cls-2" d="M104.82,1749.87s18.1-8.34,52.64-5.71,42.18-3.84,42.18-3.84-.16.68-.52,1.8c-1.06,3.38-3.82,10.82-8.92,16.39a24.13,24.13,0,0,1-4,3.57c-9.81,6.82-57.26-7.71-57.26-7.71s-13.14-3.24-16.55,1.3"/><path class="cls-2" d="M198.06,1745.5s3.62-8.09,6.2-3.16,4,11.21,1.81,15.72-15.87.45-15.87.45"/></g></g></svg>